
        <svg xmlns="http://www.w3.org/2000/svg" xmlns:xlink="http://www.w3.org/1999/xlink" version="1.1" width="3300" height="1946.6852589060882" viewBox="0 0 3300 1946.6852589060882">
			
			<g transform="scale(15) translate(10, 10)">
				<defs id="SvgjsDefs17118"/><g id="SvgjsG17119" featureKey="nameFeature-0" transform="matrix(2.938410758972168,0,0,2.938410758972168,6.464499648873453,-30.79454361115019)" fill="#000"><path d="M18.76 40.68 c0 -0.6 0.2 -1.12 0.24 -1.72 c0.16 -2.36 0.96 -4.4 1.52 -6.68 c0.2 -0.84 0.96 -2.68 0.96 -3.28 c0 -0.12 -0.08 -0.24 -0.24 -0.24 c-1.04 0 -7.44 0.92 -7.72 1.16 c-0.6 0 -1.12 0.32 -1.72 0.32 c-0.08 0 -0.08 -0.04 -0.2 -0.04 c-0.44 0.16 -2.88 0.72 -2.88 1 c0 0.12 0.04 0.24 0.04 0.4 c-0.04 0.36 -1.04 0.16 -1.04 0.64 c0 0.32 0.6 0.48 0.6 0.68 c0 0.36 -0.76 0.36 -0.92 0.72 c0.08 0.04 0.2 0.16 0.2 0.24 c0 0.28 -0.24 0.36 -0.28 0.6 c0.16 0.2 0.32 0.52 0.32 0.8 c0 0.68 -1 1.24 -1 1.68 c0 0.08 0.04 0.08 0.04 0.16 l0.32 -0.12 l0.12 0.04 c0 0.16 -0.2 0.4 -0.2 0.6 c0 0.28 0.04 0.52 0.04 0.84 c0 1.12 -0.68 2.32 -0.68 3.64 c0 1.08 0.24 2.12 0.24 3.2 c0 0.16 -0.08 0.28 -0.08 0.44 c0 0.4 0.28 0.72 0.28 1.12 l-0.08 0.16 c0.04 0.24 0.36 0.68 0.56 0.8 c-0.92 0 -1.32 -1.48 -1.64 -2 c-0.56 -0.68 -0.76 -2.68 -0.76 -3.6 c0 -0.36 0.04 -0.72 0.04 -1.12 c0 -0.24 0 -0.52 -0.12 -0.72 c0 -1.28 0.16 -2.6 0.48 -3.84 l-0.04 -0.16 c0.12 -1 0.32 -2 0.6 -3 c0.08 -0.24 0.48 -1.24 0.48 -1.4 c0 -0.12 -0.12 -0.24 -0.24 -0.24 c-1.48 0 -4.32 2 -5.56 2 c-0.52 0 -2.64 -0.16 -2.64 -0.6 c0 -0.12 2.28 -0.92 3 -0.92 s1.28 -0.6 2 -0.84 c0.68 -0.24 3.88 -1.24 4 -1.76 c0.52 -1.88 1.12 -3.64 1.84 -5.44 c0.4 -0.44 0.4 -1.24 0.76 -1.84 c0.4 -0.64 1.12 -2.28 1.32 -3.08 c0.44 -1.72 1.96 -3.32 2.16 -4.52 c0.04 -0.44 0.4 -0.56 0.48 -0.88 c0.12 -0.64 1.6 -3.4 2.4 -3.4 c0.16 0 0.8 0.32 0.88 0.48 c-0.04 0.08 -0.08 0.2 -0.08 0.36 c0 0.52 0.16 1.4 0.16 1.72 c0 1.4 -1.6 2.92 -1.68 3.68 c-0.12 0.76 -0.88 1.52 -0.96 1.96 c-0.08 0.92 -0.52 1.72 -1.04 2.48 c-0.16 0.8 -0.44 1.56 -0.96 2.2 l-0.36 0.56 c0 0.12 0.08 0.16 0.08 0.32 c0 0.96 -1.2 2.32 -1.24 2.48 c-0.08 0.4 -0.88 2.28 -1.24 2.36 c0 0.44 0.44 0.28 0.6 0.48 c0.64 -0.28 1.44 -0.64 2.24 -0.64 c0.12 0 0.2 0.12 0.32 0.12 c0.32 0 0.56 -0.36 0.84 -0.36 l0.48 0 c1.28 -0.44 5 -0.8 6.52 -0.8 c2.48 0 1.32 -0.76 2 -1.72 c0.04 -0.68 0.76 -2.56 1.04 -3.32 c0.28 -0.6 0.36 -1.32 0.52 -1.96 c0.32 -1.24 0.68 -2.36 1.2 -3.52 c0.36 -0.88 0.52 -1.92 0.84 -2.88 c0.16 -0.48 0.8 -1.92 0.8 -2.4 c0 -0.32 0.16 -0.56 0.64 -0.56 c1.16 0 1.6 1.36 1.6 2.12 c0 0.88 -0.76 1.76 -0.76 2.6 c0 0.08 0.04 0.16 0.04 0.24 c-0.52 1.12 -0.6 2.6 -1.4 3.6 c0 0.64 -0.36 1.76 -0.72 2.28 l0 0.32 c0 0.8 -0.68 1.68 -0.76 2.44 c-0.12 0.88 -0.44 1.64 -0.88 2.44 c0 0.28 1.52 0.44 1.88 0.6 c0.12 0.08 0.32 0.16 0.48 0.2 c0 0.12 -0.16 0.64 -0.36 0.64 c-0.24 0 -0.36 -0.36 -1.04 -0.36 c-1.68 0 -1.6 0.56 -1.76 2.04 c-0.36 2.2 -1.08 3.24 -1.48 5.08 l0.08 0.24 c-0.12 0.56 -0.56 1.16 -0.56 1.72 c-0.08 1.08 -0.56 1.76 -0.64 2.8 c-0.04 1.16 -0.4 1.2 -0.44 1.44 c-0.08 0.48 -0.12 0.8 -0.8 0.8 c-0.96 0 -1.08 -1.44 -1.08 -2.08 z M20.8 34.72 c0 0.68 -0.4 1.36 -0.4 2 c0 0.12 0 0.2 0.08 0.32 c0.48 -0.96 0.56 -2.24 0.92 -3.28 c0.64 -2.08 0.88 -4.44 1.92 -6.36 c0.16 -1.32 0.72 -2.68 0.84 -3.8 c0.68 -0.84 1.92 -5.76 2.36 -7.16 c0.16 -0.04 0.2 -0.08 0.2 -0.16 c0 -0.04 -0.04 -0.12 -0.04 -0.2 c0 -0.12 0.04 -0.28 0.04 -0.4 c-0.36 0.12 -0.92 1.96 -0.92 2.32 c-0.8 1.44 -1.28 3.08 -1.56 4.68 c-0.08 0.68 -0.44 1.28 -0.56 1.96 c-0.2 1.28 -1.08 2.32 -1.08 3.64 c-1.04 2.04 -0.92 4.52 -1.8 6.44 z M9.24 25.04 l0 -0.24 c0 -0.24 0.16 -0.36 0.32 -0.56 c0.2 -0.52 0.2 -1.48 0.56 -1.84 l-0.08 -0.08 c-0.64 0 -1.32 3.6 -2.04 4.88 l0 0.16 c0 0.44 -0.44 0.72 -0.44 1.04 c0 0.04 0 0.16 0.04 0.2 c-0.24 0.08 -0.8 2.48 -0.8 2.84 l0.12 0 c0.24 -0.04 0.2 -1.2 0.6 -1.4 c0 -1.36 0.92 -2.24 0.92 -3.2 c0.16 -0.12 0.8 -1.64 0.8 -1.8 z M8.48 30.08 c0.2 -0.68 0.6 -2.36 1 -2.88 c0.48 -0.64 0.48 -1.48 0.84 -2.12 c0 -0.12 0 -0.2 -0.04 -0.2 l-0.08 0.04 c-0.28 0.76 -1.16 2.12 -1.16 2.84 c0 0.36 -0.84 1.8 -0.84 2.12 c0 0.12 0.04 0.24 0.16 0.24 c0.04 0 0.08 -0.04 0.12 -0.04 z M21.4 30.92 c0.12 -0.12 0.04 -0.24 0.12 -0.32 c-0.08 0.04 -0.12 0.12 -0.12 0.2 l0 0.12 z M7.12 35.6 c-0.08 0 -0.08 0.08 -0.08 0.16 l0 0 c0.08 -0.04 0.08 -0.12 0.24 -0.16 l-0.16 0 z M6.12 36.96 l-0.04 0.04 l0.12 0 z M7.64 28.68 c0 -0.04 0 -0.08 -0.04 -0.08 c0 0.04 0.04 0.04 0.04 0.08 z M40.488 36.28 c-0.08 0.08 -0.12 0.16 -0.12 0.28 l0.12 0.08 c0 -0.08 0.08 -0.16 0.16 -0.16 c0.24 0 0.92 -0.84 1.12 -0.88 l0.08 0 c-0.08 0.16 -0.4 0.72 -0.4 0.88 l0 0.04 s0.04 0 0.04 0.04 l0.04 0.04 c-0.92 1.24 -2.08 2.4 -3.28 3.48 l-0.08 0 l-0.04 0 c-0.36 0.2 -0.84 0.32 -1.28 0.32 c-1.4 0 -2.4 -0.72 -2.48 -2.04 c0 -0.16 0 -0.36 -0.12 -0.48 l0.12 -0.16 l0.04 0.12 l0 0.08 l0 0 c0.04 0 0.08 -0.08 0.08 -0.12 c0 -0.08 -0.04 -0.12 -0.04 -0.16 l0.04 -0.08 c-0.08 -0.04 -0.2 -0.16 -0.2 -0.24 c0 -0.28 0.08 -0.6 0.16 -0.92 l0.08 0.12 c0.04 -0.12 0.04 -0.24 0.08 -0.36 l-0.04 -0.04 s-0.08 0.04 -0.12 0.04 s-0.04 -0.08 -0.04 -0.08 c0.12 -0.04 0.16 -0.12 0.16 -0.2 c0 -0.12 -0.04 -0.28 -0.04 -0.36 c0.04 -0.08 0.04 -0.24 0.2 -0.24 l0.2 0.08 c-0.2 0.24 -0.04 0.48 -0.2 0.72 l0.32 0.28 c0 -0.16 0.04 -0.32 0.04 -0.48 l0 -0.04 l-0.12 0.08 l-0.04 -0.08 c0.04 -0.24 0.16 -0.52 0.32 -0.72 c0 -0.12 -0.2 -0.08 -0.2 -0.24 c0 -0.4 0.2 -0.92 0.36 -1.32 l-0.12 -0.04 l-0.16 0.16 c-0.04 0 -0.04 -0.04 -0.04 -0.12 c0 -0.28 0.2 -0.52 0.2 -0.68 l0 -0.08 c0 -0.24 0.16 -0.52 0.24 -0.76 c0 -0.04 -0.04 -0.12 -0.04 -0.12 c0 -0.52 0.28 -1.12 0.48 -1.56 c0 -0.04 -0.04 -0.16 -0.08 -0.2 c0.16 -0.16 0.32 -0.36 0.32 -0.6 c0 -0.08 -0.08 -0.16 -0.08 -0.24 s0.04 -0.16 0.12 -0.2 l0.04 0.04 l-0.04 -0.04 c0 -0.28 0.08 -0.56 0.08 -0.84 l-0.16 -0.04 c-0.88 1.04 -1.72 2.12 -2.56 3.2 c-0.64 0 -3.56 7.72 -4.84 7.72 c-1.08 0 -1.12 -0.8 -1.28 -0.8 c-0.08 0.04 -0.08 0.04 -0.12 0.04 c-0.12 0 -0.2 -0.08 -0.2 -0.12 c0 -1 0.52 -1.92 0.56 -2.68 c0.08 -0.72 0.52 -1.44 0.52 -2.08 l0 -0.08 c0.12 -0.4 0.24 -0.64 0.24 -1.04 l0 -0.16 c0.44 -0.72 0.2 -1.28 0.48 -1.72 c0 -0.32 0.72 -2.56 0.92 -2.84 c0 -0.04 -0.04 -0.08 -0.04 -0.08 c0 -0.32 0.32 -0.6 0.68 -0.6 c0.16 0 0.44 0.2 0.6 0.32 l0.28 0.2 c0.12 0.28 0.24 0.56 0.24 0.88 c0 0.24 -0.12 0.4 -0.12 0.64 c0 0 0 0.08 0.04 0.16 c-0.28 0.4 -0.2 0.96 -0.4 1.4 c0 0.04 0.04 0.08 0.04 0.12 c0 0.36 -0.2 0.76 -0.36 1.08 c0 0.16 0.04 0.32 0.04 0.48 c-0.2 0.12 -0.24 0.36 -0.24 0.56 c0 0.12 0 0.2 0.04 0.36 c0.4 -0.2 1.56 -2.36 1.84 -2.48 l-0.04 -0.04 c0.2 -0.32 2.32 -3.12 2.36 -3.12 l-0.04 -0.04 c0.44 -0.4 0.88 -0.88 1.2 -1.36 c0.32 -0.36 0.44 -1 1.04 -1 c0.28 0 0.72 0.04 1 0.24 c0.04 -0.04 0.2 -0.16 0.32 -0.16 c0.44 0 0.52 0.28 0.52 0.6 c0 0.4 -0.08 0.76 -0.16 1.12 l-0.12 0.4 l0 0.16 c-0.16 0.16 -0.4 1.16 -0.48 1.4 l-0.08 0.6 l0 0.04 c0 1.28 -1.56 4.28 -1.56 5.92 c0 0.28 -0.16 0.48 -0.16 0.72 c0 0.04 0 0.12 0.04 0.2 c-0.04 0.12 -0.08 0.16 -0.08 0.28 s0.04 0.28 0.04 0.56 c0 0.72 0 1.88 0.36 1.88 c0.4 0 1.96 -1.52 2.28 -1.52 l0.04 0 c0.44 0 1.2 -1.24 1.48 -1.32 z M27.528000000000002 37.6 c0 0.08 0.04 0.12 0.04 0.2 c0.56 -0.28 0.72 -1.92 0.76 -2.48 c0.04 -0.44 0.8 -3.52 0.96 -4 l0 -0.04 c-0.56 0.84 -0.36 1.12 -0.56 1.76 c-0.16 0.32 -0.48 2.08 -0.68 2.16 c-0.24 0.6 -0.52 1.72 -0.52 2.4 z M35.968 29.2 c0 0.4 -1 3.32 -1.28 3.56 c0 -0.92 1.12 -3.56 1.2 -3.56 l0.08 0 z M35.008 34.08 c0 0.08 0.04 0.12 0.04 0.2 c0 0.16 -0.08 0.68 -0.32 0.68 c-0.12 0 -0.08 -0.28 -0.12 -0.36 c0.08 -0.2 0.2 -0.4 0.4 -0.52 z M35.808 32.04 l0 -0.12 c0.16 -0.16 0.24 -0.6 0.24 -0.84 c-0.24 0.28 -0.32 0.76 -0.32 1.16 z M34.648 37.16 l0 0.04 l0 0.12 l0.04 0.04 c0.12 0 0.12 -0.36 0.12 -0.44 l0 -0.24 c-0.16 0.12 -0.16 0.32 -0.16 0.48 z M40.248000000000005 36.72 l-0.04 0 c0 0.04 -0.2 0.16 -0.2 0.24 l0.12 0.08 c0.08 -0.12 0.08 -0.2 0.12 -0.32 z M29.448 30.68 l0 -0.04 c-0.12 0.04 -0.16 0.28 -0.16 0.36 c0.12 -0.08 0.16 -0.16 0.16 -0.32 z M35.328 35.32 l0.08 0.12 c0.04 -0.08 0.04 -0.16 0.04 -0.24 l-0.08 -0.04 c0 0.08 0 0.12 -0.04 0.16 z M35.488 33.04 l-0.04 -0.04 l-0.08 0.12 l0.08 0.08 z M35.008 34.08 c0 -0.08 0.04 -0.16 0.08 -0.24 l0.04 0.04 c-0.04 0.08 -0.04 0.12 -0.12 0.2 z M28.688000000000002 35.96 l-0.08 -0.04 c0 0.04 -0.04 0.08 -0.04 0.12 z M35.968 30.28 l0.04 -0.04 c0 -0.04 0 -0.04 -0.04 -0.08 l0 0.12 z M35.048 36.52 l-0.04 0.08 z M34.648 38.28 l0 0.04 l0.04 0 z M36.168 30.8 l-0.04 0 l0 0.04 c0 -0.04 0 -0.04 0.04 -0.04 z M32.168 32.08 l0.04 0 l0.04 0 l-0.08 0 z M52.776 38.28 c-0.04 0.24 -0.28 0.36 -0.56 0.4 l-0.92 0.6 l-0.16 0 c-0.6 0.44 -1.72 0.64 -2.44 1.12 c-1.2 0.28 -3.4 1.16 -4.48 1.16 c-1.84 0 -3.28 -0.64 -3.28 -2.52 c0 -0.16 0.36 -0.44 0.36 -0.72 l0.04 0.12 l-0.04 0.28 l0.04 0.08 c0 -0.44 2.88 -3.84 2.96 -3.84 l0.28 0.2 l0.08 -0.04 l-0.08 -0.24 l0.04 -0.08 c-0.04 -0.12 -0.04 -0.16 -0.04 -0.28 s0.04 -0.2 0.12 -0.32 l-0.04 -0.16 c-0.2 0.08 -0.2 0.16 -0.36 0.16 c0 -0.36 1.16 -1.8 1.4 -2.12 l0.2 -0.4 c0.08 -0.12 0.44 -0.72 0.6 -0.72 l0.12 0.16 c0.36 0 1.2 -1.8 1.36 -2.16 c0 -0.36 0.84 -1.08 0.84 -2.28 l-0.08 -0.08 c-0.16 0.12 -0.4 0.08 -0.56 0.2 c-0.36 0.2 -0.48 0.44 -0.72 0.6 c-0.6 0.36 -1.36 0.68 -1.96 0.96 l-0.16 -0.04 c-0.24 -0.24 -1.08 -0.04 -1.36 -0.72 c0.16 -0.28 0.6 -0.64 0.88 -0.64 l-0.04 0 c0 -0.04 0.52 -0.28 0.6 -0.32 c0.6 -0.32 2.44 -2.08 4.12 -2.08 c0.12 0 0.08 0.24 0.32 0.24 c0.56 0 1 0.32 1.6 0.32 c0.08 0 0.2 -0.12 0.24 -0.12 c0.08 0 0.12 0.04 0.12 0.08 s0 0.08 -0.04 0.12 c0.04 0.12 0.04 0.2 0.04 0.32 c0 0.4 -0.12 0.76 -0.32 1.12 l0 -0.04 c-0.16 0 -0.92 2.08 -1.32 2.92 c-0.24 0.52 -0.56 1.08 -0.88 1.56 l-0.28 0.48 c-0.36 0.52 -0.84 1.12 -1.12 1.56 l-0.36 0.4 c-0.48 0.6 -0.68 1.28 -1.36 1.92 c-0.56 0.56 -1 1.32 -1.36 2.04 c0 0.8 -1.44 1.4 -1.44 2.4 c0.04 0.04 0.08 0.16 0.2 0.16 c1.08 0 2.44 -0.76 3.2 -0.76 c0.04 0 0.04 0 0.04 0.04 l0 0.08 c0 0.04 0 0.04 0.04 0.04 c0.08 0 0.6 -0.16 0.6 -0.24 l0 0 c-0.12 0 -0.16 0 -0.2 0.04 l-0.12 -0.04 c0.24 -0.2 0.64 -0.4 0.96 -0.4 l0 0.12 l0.08 0.12 c0.48 -0.08 0.84 -0.44 1.24 -0.44 c0.88 0 1.76 -0.72 2.52 -0.72 c0.2 0 0.44 0 0.44 0.24 c0 0.08 -0.16 0.16 -0.24 0.2 l0 0.04 c0 0.04 0 0.08 0.08 0.08 c0 0.04 -0.04 0.04 -0.04 0.04 l0 0.04 s0.08 -0.28 0.56 -0.28 z M42.736000000000004 36.4 l-0.04 0 s-0.04 0 -0.04 -0.04 c0.16 -0.28 1.24 -1.88 1.4 -1.92 l0.08 0.04 c-0.36 0.64 -0.8 1.44 -1.4 1.92 z M46.056 32.28 l-0.04 0.08 l0.12 0.12 l0.08 -0.08 l0 -0.16 z M46.136 33.88 c-0.04 0.04 -0.08 0.12 -0.08 0.12 l0 0.12 l0.16 -0.08 z M47.416000000000004 30.48 l0.04 0.12 l0.08 -0.08 l-0.08 -0.08 z M41.936 37.52 l-0.12 0.08 l0 -0.04 c0 -0.04 0 -0.04 0.04 -0.08 z M65.70400000000001 32.04 l0.16 0.28 c-1.04 1.32 -2.4 2.48 -3.76 3.44 c-0.4 0.28 -1.68 0.8 -1.76 1.2 l0.2 0.08 l-0.32 0.24 l0.04 0.04 c0.52 -0.12 0.8 -0.48 1.24 -0.68 l0.48 0.2 c-0.16 0.16 -0.4 0.36 -0.68 0.52 l0.16 0.12 c-0.36 0.2 -0.68 0.44 -1.04 0.68 c-0.24 0.16 -2.52 0.96 -2.76 0.96 c-2.28 0 -4.12 -1.12 -4.12 -2.8 c0 -1.2 0.08 -2.8 0.72 -3.88 c-0.12 0.12 0.56 -0.68 0.56 -1.24 c0 -1.2 2.8 -4.4 3.6 -5.28 c0.6 -0.68 1.4 -0.88 2.36 -0.88 c1.52 0 2.72 1.12 2.72 2.48 c0 2 -0.76 1.68 -1 2.48 c-0.48 1.48 -3.36 2.84 -4.96 2.84 c-0.24 0 -0.44 -0.04 -0.68 -0.04 c-0.56 0 -0.72 1.76 -1 1.96 l0 0.16 c0 0.44 -0.12 1.44 -0.12 1.8 c0 0.4 0 1.56 0.64 1.56 c3.92 0 5.52 -4.12 8.32 -5.44 c0.32 -0.16 0.96 -0.48 1 -0.8 z M57.104000000000006 31.6 l0 0.16 c0 0.08 0 0.32 0.16 0.32 c0.2 0 0.96 -0.4 1.16 -0.52 c0.44 0 3.12 -2.04 3.16 -2.36 c0.08 -0.48 0.36 -0.96 0.36 -1.44 c0 -0.32 -0.08 -1.76 -0.64 -1.76 c-1.2 0 -2.68 3.56 -3.4 4.08 c-0.16 0.48 -0.44 1.16 -0.8 1.52 z M62.62400000000001 27.439999999999998 c-0.12 0 -0.6 0.84 -0.6 0.96 s0.04 0.28 0.16 0.28 c0.24 -0.32 0.44 -0.76 0.52 -1.12 l0.04 -0.08 z M54.264 34.2 c0.04 -0.2 0.16 -0.44 0.28 -0.6 c0 -0.04 0 -0.2 -0.08 -0.2 s-0.2 0.52 -0.28 0.6 c0 0.08 0 0.16 0.08 0.2 z M60.584 37.68 l-0.04 0.04 c0.04 0 0.08 0.04 0.08 0.04 c0.16 0 0.44 -0.2 0.52 -0.24 l-0.04 -0.08 c-0.28 0 -0.32 0.24 -0.52 0.24 z M64.664 32.6 l0 -0.04 c0.16 -0.16 0.4 -0.28 0.56 -0.44 c-0.04 0.24 -0.36 0.44 -0.56 0.48 z M54.30400000000001 35.4 c0 -0.04 0.12 -0.16 0.12 -0.2 s0 -0.12 -0.04 -0.16 c-0.16 0 -0.2 0.16 -0.2 0.24 s0.08 0.12 0.12 0.12 z M54.70400000000001 32.92 l0.12 -0.16 l-0.04 -0.08 l-0.16 0.08 l0 0.2 z M54.184000000000005 34.56 c0 -0.04 -0.08 -0.16 -0.08 -0.2 l-0.04 0.16 c0 0.08 0 0.12 0.04 0.2 c0.04 -0.04 0.08 -0.08 0.08 -0.16 z M55.74400000000001 30.52 c0 -0.04 -0.04 -0.04 -0.04 -0.08 l-0.16 0.08 l0.04 0.12 z M55.62400000000001 30.32 c0.08 -0.04 0.08 -0.12 0.12 -0.16 l-0.04 -0.08 c-0.08 0.08 -0.12 0.12 -0.16 0.24 l0.08 0 z M54.864000000000004 34.92 l0.12 -0.12 l-0.12 -0.04 l0 0.16 z M65.504 32 l0 0.04 c-0.08 0.04 -0.2 0.04 -0.28 0.08 c0.16 -0.08 0.08 -0.12 0.28 -0.12 z M54.06400000000001 35.12 l0.04 0 c0 -0.04 -0.04 -0.12 -0.08 -0.16 l-0.04 0.16 l0.08 0 z M55.824000000000005 32.96 l0 -0.2 c-0.04 0.08 -0.08 0.12 -0.08 0.24 z M55.98400000000001 30.64 l-0.08 0 l0.04 0.08 c0.04 -0.04 0.08 -0.04 0.08 -0.08 l-0.04 0 z M54.584 33.2 l0.04 0 l-0.04 -0.04 l0.04 0 l-0.04 -0.04 l0 0.08 z"/></g>
			</g>
		</svg>
	